<svg width="128" height="120" viewBox="0 0 128 120" fill="none" xmlns="http://www.w3.org/2000/svg">
<path d="M36.5825 33.9834L26.7947 22.6073C26.613 22.4122 26.613 22.139 26.7947 21.9439L35.9854 10.5678C36.3229 10.1385 35.9335 9.59212 35.2585 9.59212L29.4429 10.5873C24.8216 11.3678 23.4716 13.3972 20.6936 16.2851C20.1484 16.851 19.8109 17.2412 19.8109 17.2412C19.3955 17.8266 18.2272 17.5925 18.2272 16.9485V7.58228C14.6963 7.58228 12.853 8.53842 11.425 9.43602C7.01145 12.1678 6.05084 15.5631 6.05084 19.8755V34.3152C6.05084 34.6664 6.44028 34.9591 6.9076 34.9591H17.3704C17.8377 34.9591 18.2012 34.6664 18.2012 34.3152V27.0953C18.2012 26.4514 19.3176 26.2173 19.7589 26.7636L23.3418 34.6274C23.4975 34.8225 23.7831 34.9396 24.0687 34.9396H35.8556C36.5566 34.9591 36.946 34.3932 36.5825 33.9834ZM15.8127 10.88C15.1896 10.88 14.6703 10.4897 14.6703 10.0214C14.6703 9.55309 15.1896 9.16283 15.8127 9.16283C16.4358 9.16283 16.955 9.55309 16.955 10.0214C16.955 10.4897 16.4358 10.88 15.8127 10.88Z" fill="#F8DC3B"/>
<path d="M4.5455 15.9142C4.64935 16.1093 5.45418 6.23574 18.3055 6.13817C18.3055 6.13817 7.86868 -3.03297 4.02626 1.04526C4.02626 1.04526 2.10504 3.30878 5.81766 3.99173C5.81766 3.99173 -0.127716 5.16252 0.00209521 8.26509C0.0280575 9.24075 1.35214 9.86516 2.5464 9.4749C3.24739 9.24075 4.10414 8.81146 5.22052 8.03094C5.19456 8.03094 2.59833 11.9531 4.5455 15.9142Z" fill="#F04420"/>
<path d="M19.6297 7.95284V10.3529C19.6297 10.5286 19.8893 10.6261 20.0711 10.5286L23.1087 9.00655L20.0451 7.77723C19.8634 7.69917 19.6297 7.79674 19.6297 7.95284Z" fill="#F04420"/>
</svg>
